<?xml version="1.0" encoding="iso-8859-1"?>
<!-- Generator: Adobe Illustrator 18.1.1, SVG Export Plug-In . SVG Version: 6.00 Build 0)  -->
<svg xmlns="http://www.w3.org/2000/svg" xmlns:xlink="http://www.w3.org/1999/xlink" version="1.1" id="Capa_1" x="0px" y="0px" viewBox="0 0 612 612" style="enable-background:new 0 0 612 612;" xml:space="preserve" width="512px" height="512px">
<g>
	<g>
		<path d="M122.855,335.491c3.514,11.463,7.147,23.318,8.96,35.258c0.741,4.866,3.647,40.261,5.218,59.707    c0.602,7.451,6.252,13.508,13.643,14.626l25.821,3.904c3.723,0.563,6.692,3.402,7.417,7.097l3.402,17.401    c1.479,7.563,8.108,13.018,15.814,13.014l200.241-0.119c7.572-0.005,14.118-5.283,15.726-12.682l3.896-17.915    c0.86-3.536,3.782-6.193,7.383-6.717l31.437-4.566c7.554-1.097,13.3-7.344,13.759-14.964c1.206-20.008,3.457-56.434,4.155-61.425    c1.653-11.784,5.131-23.432,8.49-34.764c4.709-15.857,9.578-32.225,9.578-49.248c0.006-108.709-86.402-197.132-192.608-197.132    s-192.613,88.471-192.613,197.204C112.575,301.952,117.801,319.004,122.855,335.491z M330.285,325.459    c1.221-30.877,28.91-38.641,59.787-37.421c30.877,1.221,53.249,10.965,52.028,41.842c-1.221,30.877-27.241,54.918-58.118,53.697    C353.105,382.356,329.064,356.336,330.285,325.459z M312.119,386.048l20.042,29.679c1.778,2.632,2.021,6.011,0.639,8.871    l-2.875,5.951c-1.489,3.081-4.609,5.038-8.03,5.038h-17.167h-17.167c-3.422,0-6.542-1.958-8.03-5.038l-2.875-5.951    c-1.382-2.86-1.138-6.238,0.639-8.871l20.042-29.679C300.873,380.811,308.583,380.811,312.119,386.048z M220.299,288.039    c30.877-1.221,58.566,6.543,59.787,37.421c1.221,30.877-22.82,56.897-53.697,58.118c-30.877,1.221-56.897-22.82-58.118-53.697    C167.05,299.003,189.422,289.259,220.299,288.039z" fill="#F5964F"/>
		<path d="M556.35,58.611c2.402-14.75-2.089-30.405-13.499-41.757c-18.326-18.234-48.224-18.566-66.929-0.721    c-19.558,18.659-19.834,49.646-0.828,68.652l-17.47,17.47c-6.98,6.981-6.98,18.299,0,25.28l29.802,29.802    c6.98,6.981,18.299,6.981,25.279,0l17.47-17.47c19.007,19.007,49.994,18.73,68.652-0.828    c17.845-18.705,17.512-48.604-0.722-66.929C586.754,60.7,571.1,56.209,556.35,58.611z" fill="#F5964F"/>
		<path d="M81.824,139.866l17.47,17.47c6.981,6.981,18.299,6.981,25.279,0l29.802-29.802c6.981-6.981,6.981-18.299,0-25.28    l-17.47-17.47c19.007-19.006,18.73-49.993-0.828-68.652C117.372-1.712,87.474-1.38,69.148,16.854    C57.739,28.206,53.248,43.861,55.65,58.611C40.9,56.209,25.246,60.7,13.893,72.109c-18.234,18.325-18.567,48.224-0.722,66.929    C31.83,158.596,62.817,158.872,81.824,139.866z" fill="#F5964F"/>
		<path d="M598.829,472.962c-18.659-19.559-49.646-19.834-68.652-0.828l-17.47-17.47c-6.981-6.981-18.299-6.981-25.279,0    l-29.802,29.802c-6.98,6.981-6.98,18.299,0,25.28l17.47,17.47c-19.007,19.007-18.73,49.994,0.828,68.652    c18.705,17.845,48.604,17.513,66.929-0.721c11.41-11.352,15.901-27.007,13.499-41.757c14.75,2.402,30.404-2.089,41.756-13.499    C616.341,521.565,616.673,491.667,598.829,472.962z" fill="#F5964F"/>
		<path d="M55.65,553.389c-2.402,14.75,2.089,30.405,13.499,41.757c18.326,18.234,48.224,18.566,66.929,0.721    c19.558-18.659,19.834-49.646,0.828-68.652l17.47-17.47c6.981-6.98,6.981-18.299,0-25.28l-29.802-29.802    c-6.981-6.981-18.299-6.981-25.279,0l-17.47,17.47c-19.007-19.007-49.994-18.731-68.652,0.828    c-17.845,18.705-17.513,48.603,0.721,66.929C25.246,551.3,40.9,555.791,55.65,553.389z" fill="#F5964F"/>
	</g>
</g>
</svg>
