<?xml version="1.0" encoding="UTF-8"?>
<!-- Generator: Adobe Illustrator 15.0.2, SVG Export Plug-In . SVG Version: 6.00 Build 0)  -->
<!DOCTYPE svg PUBLIC "-//W3C//DTD SVG 1.1//EN" "http://www.w3.org/Graphics/SVG/1.1/DTD/svg11.dtd">
<svg xmlns="http://www.w3.org/2000/svg" xmlns:xlink="http://www.w3.org/1999/xlink" version="1.1" id="Layer_1" x="0px" y="0px" width="512px" height="489.147px" viewBox="0.002 0 512 489.147" enable-background="new 0.002 0 512 489.147" xml:space="preserve">
<path d="M400.273,489.147c-4.262,0-8.535-1.211-12.279-3.64l-131.992-85.616l-131.995,85.616c-7.872,5.11-18.09,4.818-25.658-0.771  c-7.561-5.562-10.875-15.231-8.329-24.273l41.344-146.684L7.989,209.382c-6.999-5.926-9.716-15.496-6.875-24.213  c2.844-8.717,10.68-14.846,19.826-15.501l147.967-10.66l66.582-145.82C239.154,5.154,247.172,0,256.002,0  c8.832,0,16.85,5.154,20.517,13.188l66.586,145.82l147.961,10.66c9.152,0.655,16.982,6.784,19.823,15.501  c2.842,8.717,0.133,18.287-6.872,24.213L380.637,313.78L421.98,460.47c2.555,9.047-0.76,18.706-8.326,24.272  C409.679,487.667,404.976,489.147,400.273,489.147z M256.002,350.454c4.272,0,8.546,1.217,12.279,3.64l94.041,61.002l-29.03-103.039  c-2.401-8.502,0.385-17.621,7.147-23.337l92.213-78.027l-106.112-7.649c-8.227-0.586-15.473-5.622-18.909-13.124L256.002,76.86  l-51.616,113.053c-3.422,7.503-10.675,12.538-18.901,13.125l-106.119,7.648l92.215,78.028c6.743,5.716,9.535,14.834,7.137,23.337  L149.684,415.09l94.049-61.001C247.466,351.671,251.734,350.454,256.002,350.454z" fill="#f1c40f"/>
</svg>
